<?xml version="1.0" encoding="UTF-8"?>
<svg id="Layer_1" data-name="Layer 1" xmlns="http://www.w3.org/2000/svg" viewBox="0 0 254.13 149.32" fill="currentColor">
  <path d="M253.37,13.47c1.02,7.13-1.77,12.34-6.21,17.06-10.39,11.03-20.57,22.26-31.05,33.2-2.59,2.71-2.69,4.57-.59,7.63,11.89,17.28,23.59,34.7,35.31,52.1,3.98,5.91,4.55,12.05.71,18.27-3.63,5.88-9.21,7.98-15.8,7.5-6.18-.45-10.15-4.29-13.49-9.21-9.63-14.19-19.4-28.29-29.15-42.4-.92-1.33-1.57-2.98-3.92-3.81-6.98,7.38-14.13,14.93-21.09,22.29-2.49-.71-2.91-2.47-3.56-3.93-8.59-19.31-17.11-38.66-25.74-57.96-.98-2.18-.88-4.09-.03-6.21,4.99-12.52,9.78-25.13,14.92-37.59,3.65-8.86,12.55-12.44,21.42-9.05,8.42,3.22,12.56,11.92,9.28,20.89-5.53,15.15-11.49,30.15-17.72,46.39,8.34-7.5,14.65-15.28,21.42-22.61,12.09-13.09,23.92-26.41,36.01-39.5,10.14-10.98,24.53-7.71,29.29,6.95Z"/>
  <path d="M42.39,36.78c6.37,16.58,12.62,32.8,18.88,49.02.46-.01.92-.03,1.38-.04,3.91-10.08,7.82-20.17,11.68-30.13,2.42.46,2.58,1.93,3.09,3.09,4.97,11.27,9.86,22.56,14.92,33.79,1.18,2.62,1.36,4.91.25,7.62-5.08,12.3-9.94,24.69-14.97,37.01-3.41,8.35-8.84,12.37-16.42,12.15-8.22-.24-12.95-4.99-15.79-12.34C30.86,99.24,16.2,61.57,1.66,23.85-2.37,13.37,1.09,4.83,10.44,1.35c9.28-3.46,18.56.96,22.49,10.85,3.2,8.04,6.23,16.14,9.46,24.58Z"/>
  <path d="M83.14,41.87c-2.88-6.23-5.72-12.07-8.27-18.04-3.9-9.12-.74-18.12,7.5-21.94,9.02-4.18,18.69-.7,22.93,8.58,8.01,17.56,15.81,35.2,23.7,52.81,9.11,20.35,18.22,40.69,27.3,61.05,4.78,10.72.97,20.7-9.09,24.05-7.56,2.52-15.02-.11-18.75-7.2-3.63-6.91-6.78-14.09-10.01-21.21-11.74-25.91-23.43-51.84-35.31-78.11Z"/>
</svg>